<svg width="41" height="41" viewBox="0 0 41 41" fill="none" xmlns="http://www.w3.org/2000/svg">
<circle cx="20.7653" cy="20.3531" r="19.3531" stroke="white" stroke-width="1.5"/>
<path d="M30.5151 17.7536L26.0724 22.2363C25.9671 22.3353 25.8278 22.3892 25.684 22.3866C25.5401 22.384 25.4028 22.3252 25.3011 22.2226C25.1993 22.1199 25.1411 21.9814 25.1385 21.8362C25.136 21.6911 25.1894 21.5506 25.2875 21.4444L28.7815 17.918H24.6618C22.8144 17.9164 21.0189 18.535 19.5582 19.6763C18.0975 20.8175 17.0545 22.4166 16.5936 24.2217C16.5568 24.3657 16.4648 24.4889 16.3379 24.5644C16.211 24.6399 16.0596 24.6614 15.917 24.6243C15.7744 24.5871 15.6522 24.4943 15.5774 24.3663C15.5026 24.2383 15.4813 24.0855 15.5181 23.9416C16.0406 21.8959 17.2226 20.0837 18.878 18.7903C20.5334 17.4969 22.5681 16.7958 24.6618 16.7973H28.7834L25.2875 13.2709C25.1894 13.1647 25.136 13.0242 25.1385 12.8791C25.1411 12.7339 25.1993 12.5954 25.3011 12.4927C25.4028 12.3901 25.5401 12.3313 25.684 12.3287C25.8278 12.3261 25.9671 12.38 26.0724 12.479L30.5151 16.9617C30.6191 17.0667 30.6775 17.2092 30.6775 17.3576C30.6775 17.5061 30.6191 17.6486 30.5151 17.7536ZM27.1608 27.2569H13.0922C13.0431 27.2569 12.996 27.2372 12.9613 27.2022C12.9266 27.1672 12.9071 27.1197 12.9071 27.0701V15.8634C12.9071 15.7148 12.8486 15.5723 12.7444 15.4672C12.6403 15.3621 12.499 15.3031 12.3517 15.3031C12.2044 15.3031 12.0632 15.3621 11.959 15.4672C11.8549 15.5723 11.7964 15.7148 11.7964 15.8634V27.0701C11.7964 27.4169 11.9329 27.7494 12.1759 27.9946C12.4189 28.2398 12.7485 28.3776 13.0922 28.3776H27.1608C27.3081 28.3776 27.4494 28.3185 27.5535 28.2134C27.6577 28.1084 27.7162 27.9658 27.7162 27.8172C27.7162 27.6686 27.6577 27.5261 27.5535 27.421C27.4494 27.3159 27.3081 27.2569 27.1608 27.2569Z" fill="white" stroke="white" stroke-width="0.2"/>
</svg>
