<svg width="37" height="37" viewBox="0 0 37 37" fill="none" xmlns="http://www.w3.org/2000/svg">
<path fill-rule="evenodd" clip-rule="evenodd" d="M7.70833 1.15625C8.77263 1.15625 9.63542 2.01903 9.63542 3.08333V5.78125H21.7375C24.74 5.78125 27.3853 6.12142 29.1319 7.86807C30.8786 9.61473 31.2188 12.26 31.2188 15.2625V27.3646H33.9167C34.981 27.3646 35.8438 28.2274 35.8438 29.2917C35.8438 30.356 34.981 31.2188 33.9167 31.2188H31.2188V33.9167C31.2188 34.981 30.356 35.8438 29.2917 35.8438C28.2274 35.8438 27.3646 34.981 27.3646 33.9167V31.2188H15.2625C12.26 31.2188 9.61473 30.8786 7.86807 29.1319C6.12142 27.3853 5.78125 24.74 5.78125 21.7375V9.63542H3.08333C2.01903 9.63542 1.15625 8.77263 1.15625 7.70833C1.15625 6.64403 2.01903 5.78125 3.08333 5.78125H5.78125V3.08333C5.78125 2.01903 6.64403 1.15625 7.70833 1.15625ZM9.63542 9.63542V21.7375C9.63542 24.7475 10.0661 25.8793 10.5934 26.4066C11.1207 26.9339 12.2525 27.3646 15.2625 27.3646H27.3646V15.2625C27.3646 12.2525 26.9339 11.1207 26.4066 10.5934C25.8793 10.0661 24.7475 9.63542 21.7375 9.63542H9.63542Z" fill="white"/>
</svg>
