<svg width="41" height="41" viewBox="0 0 41 41" fill="none" xmlns="http://www.w3.org/2000/svg">
<circle cx="20.5" cy="20.5" r="20.5" fill="black" fill-opacity="0.3"/>
<path d="M29.6596 22.2445C30.3823 22.2445 30.9681 21.6587 30.9681 20.936C30.9681 20.2134 30.3823 19.6275 29.6596 19.6275V22.2445ZM10.4152 20.0108C9.90419 20.5218 9.90419 21.3503 10.4152 21.8613L18.7425 30.1886C19.2535 30.6996 20.082 30.6996 20.593 30.1886C21.104 29.6776 21.104 28.8491 20.593 28.3381L13.191 20.936L20.593 13.534C21.104 13.023 21.104 12.1945 20.593 11.6835C20.082 11.1725 19.2535 11.1725 18.7425 11.6835L10.4152 20.0108ZM29.6596 19.6275L11.3405 19.6275V22.2445L29.6596 22.2445V19.6275Z" fill="white"/>
</svg>
