<svg width="27" height="19" viewBox="0 0 27 19" fill="none" xmlns="http://www.w3.org/2000/svg">
<path d="M26.2756 8.92553C25.0825 3.7504 23.2869 0.988242 20.6233 0.23375C20.0634 0.0761852 19.4826 -0.00253233 18.8992 6.20956e-05C18.1279 6.20956e-05 17.4563 0.18032 16.7458 0.371372C15.8896 0.601821 14.917 0.863573 13.4988 0.863573C12.0807 0.863573 11.1075 0.602361 10.2497 0.371911C9.53861 0.18032 8.86751 6.20956e-05 8.09853 6.20956e-05C7.49517 -0.00194507 6.89445 0.0765217 6.31362 0.23321C3.66409 0.984465 1.86961 3.74554 0.65904 8.92229C-0.64266 14.493 -0.00193538 18.0102 2.45577 18.8262C2.79266 18.9401 3.14712 18.9989 3.50433 19C5.18799 19 6.53807 17.6545 7.46062 16.553C8.50299 15.3063 9.72312 14.6738 13.4988 14.6738C16.8712 14.6738 18.2669 15.1126 19.4724 16.553C20.2301 17.4586 20.9462 18.0922 21.6606 18.4911C22.6107 19.021 23.5603 19.1387 24.4823 18.8349C25.9347 18.3594 26.7673 17.1024 26.9574 15.098C27.102 13.561 26.8792 11.542 26.2756 8.92553ZM10.7987 8.63517H8.99858V10.3622C8.99858 10.5912 8.90376 10.8108 8.73496 10.9728C8.56617 11.1347 8.33724 11.2257 8.09853 11.2257C7.85982 11.2257 7.63089 11.1347 7.4621 10.9728C7.29331 10.8108 7.19848 10.5912 7.19848 10.3622V8.63517H5.39838C5.15967 8.63517 4.93074 8.54419 4.76194 8.38225C4.59315 8.22031 4.49832 8.00068 4.49832 7.77166C4.49832 7.54264 4.59315 7.32301 4.76194 7.16107C4.93074 6.99913 5.15967 6.90815 5.39838 6.90815H7.19848V5.18113C7.19848 4.95211 7.29331 4.73247 7.4621 4.57053C7.63089 4.40859 7.85982 4.31762 8.09853 4.31762C8.33724 4.31762 8.56617 4.40859 8.73496 4.57053C8.90376 4.73247 8.99858 4.95211 8.99858 5.18113V6.90815H10.7987C11.0374 6.90815 11.2663 6.99913 11.4351 7.16107C11.6039 7.32301 11.6987 7.54264 11.6987 7.77166C11.6987 8.00068 11.6039 8.22031 11.4351 8.38225C11.2663 8.54419 11.0374 8.63517 10.7987 8.63517ZM15.524 8.85105C15.3014 8.85105 15.0839 8.78774 14.8989 8.66914C14.7139 8.55053 14.5697 8.38196 14.4845 8.18472C14.3994 7.98749 14.3771 7.77046 14.4205 7.56108C14.4639 7.3517 14.5711 7.15937 14.7284 7.00842C14.8858 6.85746 15.0862 6.75466 15.3045 6.71301C15.5227 6.67136 15.7489 6.69274 15.9545 6.77444C16.1601 6.85613 16.3358 6.99448 16.4594 7.17198C16.583 7.34949 16.649 7.55818 16.649 7.77166C16.649 8.05793 16.5305 8.33248 16.3195 8.5349C16.1085 8.73733 15.8223 8.85105 15.524 8.85105ZM17.9991 11.2257C17.7765 11.2257 17.5588 11.1623 17.3738 11.0436C17.1887 10.9249 17.0445 10.7561 16.9594 10.5588C16.8743 10.3614 16.8522 10.1442 16.8959 9.93474C16.9395 9.72529 17.0469 9.53296 17.2046 9.38212C17.3622 9.23127 17.5629 9.12868 17.7813 9.08734C17.9998 9.046 18.2261 9.06776 18.4316 9.14987C18.6371 9.23198 18.8126 9.37075 18.9359 9.5486C19.0592 9.72646 19.1247 9.93542 19.1242 10.149C19.1234 10.4348 19.0046 10.7087 18.7936 10.9105C18.5827 11.1124 18.297 11.2257 17.9991 11.2257ZM17.9991 6.47639C17.7766 6.47639 17.5591 6.41309 17.374 6.29448C17.189 6.17588 17.0448 6.0073 16.9597 5.81007C16.8745 5.61284 16.8522 5.39581 16.8957 5.18643C16.9391 4.97705 17.0462 4.78472 17.2036 4.63376C17.3609 4.48281 17.5614 4.38001 17.7796 4.33836C17.9979 4.29671 18.2241 4.31808 18.4296 4.39978C18.6352 4.48148 18.8109 4.61982 18.9346 4.79733C19.0582 4.97483 19.1242 5.18352 19.1242 5.39701C19.1242 5.68328 19.0056 5.95782 18.7946 6.16025C18.5837 6.36267 18.2975 6.47639 17.9991 6.47639ZM20.4742 8.85105C20.2517 8.85105 20.0342 8.78774 19.8492 8.66914C19.6642 8.55053 19.52 8.38196 19.4348 8.18472C19.3497 7.98749 19.3274 7.77046 19.3708 7.56108C19.4142 7.3517 19.5214 7.15937 19.6787 7.00842C19.836 6.85746 20.0365 6.75466 20.2548 6.71301C20.473 6.67136 20.6992 6.69274 20.9048 6.77444C21.1104 6.85613 21.2861 6.99448 21.4097 7.17198C21.5333 7.34949 21.5993 7.55818 21.5993 7.77166C21.5993 8.05793 21.4808 8.33248 21.2698 8.5349C21.0588 8.73733 20.7726 8.85105 20.4742 8.85105Z" fill="#A076F9"/>
</svg>
