<svg width="24" height="18" viewBox="0 0 24 18" fill="none" xmlns="http://www.w3.org/2000/svg">
<path d="M15.75 9.75C15.75 10.7446 15.3549 11.6984 14.6517 12.4017C13.9484 13.1049 12.9946 13.5 12 13.5C11.0054 13.5 10.0516 13.1049 9.34835 12.4017C8.64509 11.6984 8.25 10.7446 8.25 9.75C8.25 8.75544 8.64509 7.80161 9.34835 7.09835C10.0516 6.39509 11.0054 6 12 6C12.9946 6 13.9484 6.39509 14.6517 7.09835C15.3549 7.80161 15.75 8.75544 15.75 9.75Z" fill="#A076F9"/>
<path d="M3 3C2.20435 3 1.44129 3.31607 0.87868 3.87868C0.316071 4.44129 0 5.20435 0 6L0 15C0 15.7956 0.316071 16.5587 0.87868 17.1213C1.44129 17.6839 2.20435 18 3 18H21C21.7956 18 22.5587 17.6839 23.1213 17.1213C23.6839 16.5587 24 15.7956 24 15V6C24 5.20435 23.6839 4.44129 23.1213 3.87868C22.5587 3.31607 21.7956 3 21 3H19.242C18.4464 2.99983 17.6835 2.68365 17.121 2.121L15.879 0.879C15.3165 0.316352 14.5536 0.000169912 13.758 0H10.242C9.44642 0.000169912 8.68348 0.316352 8.121 0.879L6.879 2.121C6.31652 2.68365 5.55358 2.99983 4.758 3H3ZM3.75 6C3.55109 6 3.36032 5.92098 3.21967 5.78033C3.07902 5.63968 3 5.44891 3 5.25C3 5.05109 3.07902 4.86032 3.21967 4.71967C3.36032 4.57902 3.55109 4.5 3.75 4.5C3.94891 4.5 4.13968 4.57902 4.28033 4.71967C4.42098 4.86032 4.5 5.05109 4.5 5.25C4.5 5.44891 4.42098 5.63968 4.28033 5.78033C4.13968 5.92098 3.94891 6 3.75 6ZM17.25 9.75C17.25 11.1424 16.6969 12.4777 15.7123 13.4623C14.7277 14.4469 13.3924 15 12 15C10.6076 15 9.27226 14.4469 8.28769 13.4623C7.30312 12.4777 6.75 11.1424 6.75 9.75C6.75 8.35761 7.30312 7.02226 8.28769 6.03769C9.27226 5.05312 10.6076 4.5 12 4.5C13.3924 4.5 14.7277 5.05312 15.7123 6.03769C16.6969 7.02226 17.25 8.35761 17.25 9.75Z" fill="#A076F9"/>
</svg>
