<svg width="16" height="19" viewBox="0 0 16 19" fill="none" xmlns="http://www.w3.org/2000/svg">
<path d="M2 19C1.45 19 0.979001 18.8138 0.587001 18.4414C0.195002 18.069 -0.000664969 17.6219 1.69779e-06 17.1V1.9C1.69779e-06 1.3775 0.196001 0.930051 0.588001 0.557651C0.980001 0.185251 1.45067 -0.00063172 2 1.6129e-06H14C14.55 1.6129e-06 15.021 0.186202 15.413 0.558602C15.805 0.931001 16.0007 1.37813 16 1.9V17.1C16 17.6225 15.804 18.0699 15.412 18.4423C15.02 18.8147 14.5493 19.0006 14 19H2ZM7 8.55L9.5 7.125L12 8.55V1.9H7V8.55Z" fill="#A076F9"/>
</svg>
