<svg width="40" height="40" viewBox="0 0 40 40" fill="none" xmlns="http://www.w3.org/2000/svg">
<path fill-rule="evenodd" clip-rule="evenodd" d="M20 1.66675C18.7778 1.66675 17.5818 1.78659 16.4239 2.01567C15.5209 2.1943 14.9337 3.07112 15.1123 3.9741C15.291 4.87707 16.1678 5.46426 17.0708 5.28563C18.0168 5.09847 18.9961 5.00008 20 5.00008C21.0039 5.00008 21.9832 5.09847 22.9293 5.28563C23.8322 5.46426 24.7091 4.87707 24.8877 3.9741C25.0663 3.07112 24.4791 2.1943 23.5762 2.01567C22.4182 1.78659 21.2223 1.66675 20 1.66675ZM30.1875 4.75571C29.4226 4.24363 28.3874 4.44857 27.8753 5.21346C27.3633 5.97834 27.5682 7.01353 28.3331 7.5256C29.9696 8.62121 31.3789 10.0305 32.4745 11.667C32.9866 12.4319 34.0218 12.6368 34.7866 12.1248C35.5515 11.6127 35.7565 10.5775 35.2444 9.81262C33.9064 7.81406 32.186 6.09371 30.1875 4.75571ZM11.667 7.5256C12.4318 7.01353 12.6368 5.97834 12.1247 5.21346C11.6126 4.44857 10.5774 4.24363 9.81256 4.75571C7.814 6.09371 6.09365 7.81406 4.75565 9.81262C4.24357 10.5775 4.44851 11.6127 5.2134 12.1248C5.97828 12.6368 7.01347 12.4319 7.52554 11.667C8.62115 10.0305 10.0305 8.62121 11.667 7.5256ZM37.9844 16.4239C37.8058 15.521 36.929 14.9338 36.026 15.1124C35.123 15.291 34.5358 16.1679 34.7145 17.0708C34.9016 18.0169 35 18.9962 35 20.0001C35 21.004 34.9016 21.9833 34.7145 22.9293C34.5358 23.8323 35.123 24.7091 36.026 24.8878C36.929 25.0664 37.8058 24.4792 37.9844 23.5762C38.2135 22.4183 38.3333 21.2223 38.3333 20.0001C38.3333 18.7778 38.2135 17.5819 37.9844 16.4239ZM5.28557 17.0708C5.4642 16.1679 4.87701 15.291 3.97404 15.1124C3.07106 14.9338 2.19424 15.521 2.01561 16.4239C1.78653 17.5819 1.66669 18.7778 1.66669 20.0001C1.66669 21.2223 1.78653 22.4183 2.01561 23.5762C2.19424 24.4792 3.07106 25.0664 3.97404 24.8878C4.87701 24.7091 5.4642 23.8323 5.28557 22.9293C5.09841 21.9833 5.00002 21.004 5.00002 20.0001C5.00002 18.9962 5.09841 18.0169 5.28557 17.0708ZM7.52554 28.3331C7.01347 27.5683 5.97828 27.3633 5.2134 27.8754C4.44851 28.3875 4.24357 29.4227 4.75565 30.1875C6.09365 32.1861 7.814 33.9064 9.81256 35.2444C10.5774 35.7565 11.6126 35.5516 12.1247 34.7867C12.6368 34.0218 12.4318 32.9866 11.667 32.4746C10.0305 31.379 8.62115 29.9696 7.52554 28.3331ZM35.2444 30.1875C35.7565 29.4227 35.5515 28.3875 34.7866 27.8754C34.0218 27.3633 32.9866 27.5683 32.4745 28.3331C31.3789 29.9696 29.9696 31.379 28.3331 32.4746C27.5682 32.9866 27.3633 34.0218 27.8753 34.7867C28.3874 35.5516 29.4226 35.7565 30.1875 35.2444C32.186 33.9064 33.9064 32.1861 35.2444 30.1875ZM17.0708 34.7145C16.1678 34.5359 15.291 35.1231 15.1123 36.0261C14.9337 36.929 15.5209 37.8059 16.4239 37.9845C17.5818 38.2136 18.7778 38.3334 20 38.3334C21.2223 38.3334 22.4182 38.2136 23.5762 37.9845C24.4791 37.8059 25.0663 36.929 24.8877 36.0261C24.7091 35.1231 23.8322 34.5359 22.9293 34.7145C21.9832 34.9017 21.0039 35.0001 20 35.0001C18.9961 35.0001 18.0168 34.9017 17.0708 34.7145ZM20.0005 32.1209C26.6948 32.1209 32.1217 26.6941 32.1217 19.9997C32.1217 13.3054 26.6948 7.8785 20.0005 7.8785C13.3061 7.8785 7.87925 13.3054 7.87925 19.9997C7.87925 26.6941 13.3061 32.1209 20.0005 32.1209Z" fill="white"/>
</svg>
