<svg width="136" height="26" viewBox="0 0 136 26" fill="none" xmlns="http://www.w3.org/2000/svg">
<rect x="-31" width="167" height="26" rx="13" fill="#A076F9"/>
<path d="M54.664 16.104L56.424 16.92C54.232 19.016 50.584 19.928 46.44 20.424C46.264 19.896 45.896 19.192 45.56 18.744C49.32 18.456 52.904 17.72 54.664 16.104ZM52.792 14.488L54.376 15.272C52.712 16.52 50.12 17.352 47.688 17.8C47.464 17.368 47.048 16.744 46.648 16.344C48.824 16.056 51.464 15.384 52.792 14.488ZM58.28 12.2H54.792C55.8 13.256 57.192 14.2 58.6 14.728C58.168 15.096 57.608 15.816 57.32 16.28C55.496 15.432 53.768 13.928 52.6 12.2H49.512C49.112 12.792 48.68 13.32 48.2 13.816C49.432 13.512 50.76 13.112 51.544 12.696L53.096 13.544C51.72 14.36 49.704 15.032 48.12 15.384C47.944 15.128 47.704 14.808 47.432 14.536C46.648 15.224 45.768 15.816 44.84 16.28C44.552 15.912 43.848 15.144 43.416 14.776C44.856 14.184 46.104 13.304 47.112 12.2H43.8V10.536H48.296C48.488 10.2 48.648 9.88 48.792 9.528C46.712 9.624 46.184 9.688 45.752 9.832C45.688 9.464 45.416 8.584 45.208 8.104C45.592 8.04 45.96 7.848 46.44 7.576C46.952 7.304 48.536 6.36 49.64 5.256L51.352 6.184C50.584 6.808 49.736 7.384 48.888 7.912L53.336 7.8C52.872 7.432 52.392 7.08 51.944 6.792L53.432 5.832C54.824 6.744 56.648 8.088 57.544 9.08L55.944 10.152C55.72 9.896 55.416 9.592 55.064 9.272L50.952 9.432C50.808 9.816 50.648 10.168 50.472 10.536H58.28V12.2ZM67.128 8.664V9.928H68.072C68.616 9.512 69.128 9.112 69.592 8.664H67.128ZM74.088 11.528H68.696C68.152 11.944 67.592 12.312 67.016 12.696H72.488V14.136H66.312C66.136 14.536 65.96 14.936 65.768 15.32H72.04C72.04 15.32 71.976 15.848 71.912 16.088C71.56 18.2 71.192 19.272 70.632 19.752C70.152 20.168 69.656 20.28 68.872 20.312C68.28 20.36 67.224 20.36 66.104 20.312C66.088 19.768 65.816 19.032 65.464 18.552C66.552 18.632 67.848 18.664 68.312 18.664C68.68 18.664 68.92 18.648 69.128 18.504C69.4 18.312 69.624 17.8 69.832 16.856H62.968C63.384 16.136 63.88 15.208 64.296 14.312C62.984 15.016 61.656 15.64 60.328 16.152C60.216 15.72 59.848 14.856 59.608 14.44C61.704 13.72 63.816 12.728 65.768 11.528H60.12V9.928H65.256V8.664H61.464V7.112H65.256V5.448H67.128V7.112H70.344V7.96C70.952 7.368 71.496 6.744 72.008 6.104L73.48 6.936C72.664 7.992 71.704 9 70.648 9.928H74.088V11.528ZM79.032 5.512L80.888 6.088C80.472 7.208 79.944 8.344 79.352 9.416V20.376H77.432V12.376C77.096 12.776 76.76 13.176 76.44 13.528C76.264 13.064 75.72 11.976 75.384 11.496C76.84 10.056 78.232 7.784 79.032 5.512ZM90.504 9.864H85.96V11.544H90.104V13.272H85.96V15.08H90.312V16.84H85.96V20.392H84.008V9.864H83.4C82.76 11.048 82.024 12.136 81.304 12.968C81 12.616 80.248 11.944 79.848 11.64C81.256 10.2 82.52 7.896 83.24 5.608L85.08 6.072C84.856 6.744 84.6 7.4 84.296 8.056H90.504V9.864ZM101.8 10.056V7.896H96.2V10.056H101.8ZM103.736 6.072V11.864H94.36V6.072H103.736ZM96.344 15.016H93.96V17.768H96.344V15.016ZM92.152 20.392V13.192H98.248V20.312H96.344V19.592H93.96V20.392H92.152ZM101.432 17.768H103.976V15.016H101.432V17.768ZM99.608 13.192H105.896V20.328H103.976V19.592H101.432V20.392H99.608V13.192Z" fill="white" fill-opacity="0.8"/>
</svg>
