<svg width="41" height="41" viewBox="0 0 41 41" fill="none" xmlns="http://www.w3.org/2000/svg">
<circle cx="20.5" cy="20.5" r="20.5" fill="#A076F9"/>
<path d="M29.6595 22.2445C30.3822 22.2445 30.968 21.6587 30.968 20.936C30.968 20.2134 30.3822 19.6275 29.6595 19.6275V22.2445ZM10.4151 20.0108C9.90407 20.5218 9.90407 21.3503 10.4151 21.8613L18.7424 30.1886C19.2534 30.6996 20.0819 30.6996 20.5929 30.1886C21.1039 29.6776 21.1039 28.8491 20.5929 28.3381L13.1908 20.936L20.5929 13.534C21.1039 13.023 21.1039 12.1945 20.5929 11.6835C20.0819 11.1725 19.2534 11.1725 18.7424 11.6835L10.4151 20.0108ZM29.6595 19.6275L11.3403 19.6275V22.2445L29.6595 22.2445V19.6275Z" fill="white"/>
</svg>
