<svg width="45" height="42" viewBox="0 0 45 42" fill="none" xmlns="http://www.w3.org/2000/svg">
<path fill-rule="evenodd" clip-rule="evenodd" d="M33.75 14C33.7529 16.304 32.9429 18.5449 31.4449 20.3763C29.947 22.2077 27.8446 23.5278 25.4625 24.1325C24.525 24.3775 23.5313 24.5 22.5 24.5C21.4688 24.5 20.475 24.3775 19.5375 24.1325C17.1554 23.5278 15.053 22.2077 13.5551 20.3763C12.0572 18.5449 11.2471 16.304 11.25 14C11.25 8.2075 16.2938 3.5 22.5 3.5C28.7063 3.5 33.75 8.2075 33.75 14ZM26.25 27.9996C26.25 31.0971 24.8062 33.8971 22.5 35.8046C20.4475 37.5443 17.7726 38.5055 15 38.4996C8.79375 38.4996 3.75 33.7921 3.75 27.9996C3.75113 26.3152 4.1871 24.6558 5.021 23.1619C5.8549 21.668 7.06218 20.3837 8.54062 19.4176C9.0075 19.1131 9.63562 19.3214 9.88687 19.7974C10.7662 21.4626 12.0144 22.9345 13.5488 24.1159C15.0831 25.2973 16.8687 26.1611 18.7875 26.6504C19.9688 26.9654 21.2062 27.1229 22.5 27.1229C23.4131 27.1229 24.2887 27.0424 25.1381 26.8936C25.68 26.7991 26.2181 27.1211 26.2406 27.6356C26.2481 27.7581 26.25 27.8789 26.25 27.9979V27.9996ZM39.9583 32.8731C40.8041 31.37 41.2471 29.6981 41.2494 28.0003V27.9986C41.2472 26.315 40.8107 24.6567 39.9769 23.1639C39.143 21.671 37.9363 20.3875 36.4587 19.4218C35.9937 19.1156 35.3637 19.3256 35.1125 19.8016C33.852 22.1915 31.8372 24.1636 29.3394 25.4523C29.1889 25.5282 29.0672 25.6456 28.9907 25.7883C28.9142 25.9311 28.8867 26.0924 28.9119 26.2503C29.0056 26.8103 29.0619 27.4053 29.0619 28.0003C29.0684 31.0955 27.8878 34.0907 25.7337 36.4441C25.3175 36.8973 25.4281 37.6113 26.0262 37.8231C27.7288 38.4207 29.5612 38.6245 31.3666 38.4169C33.172 38.2094 34.8966 37.5966 36.3929 36.6312C37.8892 35.6657 39.1125 34.3762 39.9583 32.8731Z" fill="white"/>
</svg>
